{"asset":{"version":"2.0","generator":"Blockbench 4.8.3 glTF exporter"},"scenes":[{"nodes":[25],"name":"blockbench_export"}],"scene":0,"nodes":[{"translation":[1,0,0],"name":"cube","mesh":0},{"translation":[0.984375,0.1875,0],"name":"cube","mesh":1},{"translation":[0.015625,0.1875,0],"name":"cube","mesh":2},{"translation":[0.289125,0.28125,0.203125],"name":"cube","mesh":3},{"translation":[1,0,0],"name":"cube","mesh":4},{"rotation":[0,0,0.19509032201612825,0.9807852804032304],"translation":[0.796875,0.46875,0.5],"name":"cube","mesh":5},{"rotation":[0,0,-0.19509032201612825,0.9807852804032304],"translation":[0.203125,0.46875,0.5],"name":"cube","mesh":6},{"translation":[1,0,0],"name":"cube","mesh":7},{"translation":[1,0,0],"name":"cube","mesh":8},{"translation":[1,0,0],"name":"cube","mesh":9},{"translation":[0.875,0.03125,0],"name":"cube","mesh":10},{"translation":[1,0,0],"name":"cube","mesh":11},{"translation":[1,0,0],"name":"cube","mesh":12},{"rotation":[0,0,-0.3826834323650898,0.9238795325112867],"translation":[0.5,0.09375,0.0625],"name":"cube","mesh":13},{"rotation":[0,0,-0.3826834323650898,0.9238795325112867],"translation":[0.5,0.59375,0.0625],"name":"cube","mesh":14},{"translation":[0.8125,0.1875,0.4375],"name":"cube","mesh":15},{"translation":[0.8125,0.25,0.5],"name":"cube","mesh":16},{"rotation":[0,0,-0.3826834323650898,0.9238795325112867],"translation":[0.65625,0.5625,0.53125],"name":"cube","mesh":17},{"rotation":[0,0,0.3826834323650898,0.9238795325112867],"translation":[0.34375,0.5625,0.53125],"name":"cube","mesh":18},{"translation":[0.1875,0.25,0.5],"name":"cube","mesh":19},{"translation":[0.1875,0.1875,0.4375],"name":"cube","mesh":20},{"name":"cube","mesh":21},{"name":"cube","mesh":22},{"name":"cube","mesh":23},{"name":"cube","mesh":24},{"children":[0,1,2,3,4,5,6,7,8,9,10,11,12,13,14,15,16,17,18,19,20,21,22,23,24]}],"bufferViews":[{"buffer":0,"byteOffset":0,"byteLength":288,"target":34962,"byteStride":12},{"buffer":0,"byteOffset":288,"byteLength":288,"target":34962,"byteStride":12},{"buffer":0,"byteOffset":576,"byteLength":192,"target":34962,"byteStride":8},{"buffer":0,"byteOffset":768,"byteLength":72,"target":34963},{"buffer":0,"byteOffset":840,"byteLength":288,"target":34962,"byteStride":12},{"buffer":0,"byteOffset":1128,"byteLength":288,"target":34962,"byteStride":12},{"buffer":0,"byteOffset":1416,"byteLength":192,"target":34962,"byteStride":8},{"buffer":0,"byteOffset":1608,"byteLength":24,"target":34963},{"buffer":0,"byteOffset":1632,"byteLength":288,"target":34962,"byteStride":12},{"buffer":0,"byteOffset":1920,"byteLength":288,"target":34962,"byteStride":12},{"buffer":0,"byteOffset":2208,"byteLength":192,"target":34962,"byteStride":8},{"buffer":0,"byteOffset":2400,"byteLength":24,"target":34963},{"buffer":0,"byteOffset":2424,"byteLength":288,"target":34962,"byteStride":12},{"buffer":0,"byteOffset":2712,"byteLength":288,"target":34962,"byteStride":12},{"buffer":0,"byteOffset":3000,"byteLength":192,"target":34962,"byteStride":8},{"buffer":0,"byteOffset":3192,"byteLength":72,"target":34963},{"buffer":0,"byteOffset":3264,"byteLength":288,"target":34962,"byteStride":12},{"buffer":0,"byteOffset":3552,"byteLength":288,"target":34962,"byteStride":12},{"buffer":0,"byteOffset":3840,"byteLength":192,"target":34962,"byteStride":8},{"buffer":0,"byteOffset":4032,"byteLength":72,"target":34963},{"buffer":0,"byteOffset":4104,"byteLength":288,"target":34962,"byteStride":12},{"buffer":0,"byteOffset":4392,"byteLength":288,"target":34962,"byteStride":12},{"buffer":0,"byteOffset":4680,"byteLength":192,"target":34962,"byteStride":8},{"buffer":0,"byteOffset":4872,"byteLength":72,"target":34963},{"buffer":0,"byteOffset":4944,"byteLength":288,"target":34962,"byteStride":12},{"buffer":0,"byteOffset":5232,"byteLength":288,"target":34962,"byteStride":12},{"buffer":0,"byteOffset":5520,"byteLength":192,"target":34962,"byteStride":8},{"buffer":0,"byteOffset":5712,"byteLength":72,"target":34963},{"buffer":0,"byteOffset":5784,"byteLength":288,"target":34962,"byteStride":12},{"buffer":0,"byteOffset":6072,"byteLength":288,"target":34962,"byteStride":12},{"buffer":0,"byteOffset":6360,"byteLength":192,"target":34962,"byteStride":8},{"buffer":0,"byteOffset":6552,"byteLength":72,"target":34963},{"buffer":0,"byteOffset":6624,"byteLength":288,"target":34962,"byteStride":12},{"buffer":0,"byteOffset":6912,"byteLength":288,"target":34962,"byteStride":12},{"buffer":0,"byteOffset":7200,"byteLength":192,"target":34962,"byteStride":8},{"buffer":0,"byteOffset":7392,"byteLength":36,"target":34963},{"buffer":0,"byteOffset":7428,"byteLength":288,"target":34962,"byteStride":12},{"buffer":0,"byteOffset":7716,"byteLength":288,"target":34962,"byteStride":12},{"buffer":0,"byteOffset":8004,"byteLength":192,"target":34962,"byteStride":8},{"buffer":0,"byteOffset":8196,"byteLength":60,"target":34963},{"buffer":0,"byteOffset":8256,"byteLength":288,"target":34962,"byteStride":12},{"buffer":0,"byteOffset":8544,"byteLength":288,"target":34962,"byteStride":12},{"buffer":0,"byteOffset":8832,"byteLength":192,"target":34962,"byteStride":8},{"buffer":0,"byteOffset":9024,"byteLength":48,"target":34963},{"buffer":0,"byteOffset":9072,"byteLength":288,"target":34962,"byteStride":12},{"buffer":0,"byteOffset":9360,"byteLength":288,"target":34962,"byteStride":12},{"buffer":0,"byteOffset":9648,"byteLength":192,"target":34962,"byteStride":8},{"buffer":0,"byteOffset":9840,"byteLength":72,"target":34963},{"buffer":0,"byteOffset":9912,"byteLength":288,"target":34962,"byteStride":12},{"buffer":0,"byteOffset":10200,"byteLength":288,"target":34962,"byteStride":12},{"buffer":0,"byteOffset":10488,"byteLength":192,"target":34962,"byteStride":8},{"buffer":0,"byteOffset":10680,"byteLength":48,"target":34963},{"buffer":0,"byteOffset":10728,"byteLength":288,"target":34962,"byteStride":12},{"buffer":0,"byteOffset":11016,"byteLength":288,"target":34962,"byteStride":12},{"buffer":0,"byteOffset":11304,"byteLength":192,"target":34962,"byteStride":8},{"buffer":0,"byteOffset":11496,"byteLength":72,"target":34963},{"buffer":0,"byteOffset":11568,"byteLength":288,"target":34962,"byteStride":12},{"buffer":0,"byteOffset":11856,"byteLength":288,"target":34962,"byteStride":12},{"buffer":0,"byteOffset":12144,"byteLength":192,"target":34962,"byteStride":8},{"buffer":0,"byteOffset":12336,"byteLength":72,"target":34963},{"buffer":0,"byteOffset":12408,"byteLength":288,"target":34962,"byteStride":12},{"buffer":0,"byteOffset":12696,"byteLength":288,"target":34962,"byteStride":12},{"buffer":0,"byteOffset":12984,"byteLength":192,"target":34962,"byteStride":8},{"buffer":0,"byteOffset":13176,"byteLength":60,"target":34963},{"buffer":0,"byteOffset":13236,"byteLength":288,"target":34962,"byteStride":12},{"buffer":0,"byteOffset":13524,"byteLength":288,"target":34962,"byteStride":12},{"buffer":0,"byteOffset":13812,"byteLength":192,"target":34962,"byteStride":8},{"buffer":0,"byteOffset":14004,"byteLength":24,"target":34963},{"buffer":0,"byteOffset":14028,"byteLength":288,"target":34962,"byteStride":12},{"buffer":0,"byteOffset":14316,"byteLength":288,"target":34962,"byteStride":12},{"buffer":0,"byteOffset":14604,"byteLength":192,"target":34962,"byteStride":8},{"buffer":0,"byteOffset":14796,"byteLength":24,"target":34963},{"buffer":0,"byteOffset":14820,"byteLength":288,"target":34962,"byteStride":12},{"buffer":0,"byteOffset":15108,"byteLength":288,"target":34962,"byteStride":12},{"buffer":0,"byteOffset":15396,"byteLength":192,"target":34962,"byteStride":8},{"buffer":0,"byteOffset":15588,"byteLength":24,"target":34963},{"buffer":0,"byteOffset":15612,"byteLength":288,"target":34962,"byteStride":12},{"buffer":0,"byteOffset":15900,"byteLength":288,"target":34962,"byteStride":12},{"buffer":0,"byteOffset":16188,"byteLength":192,"target":34962,"byteStride":8},{"buffer":0,"byteOffset":16380,"byteLength":24,"target":34963},{"buffer":0,"byteOffset":16404,"byteLength":288,"target":34962,"byteStride":12},{"buffer":0,"byteOffset":16692,"byteLength":288,"target":34962,"byteStride":12},{"buffer":0,"byteOffset":16980,"byteLength":192,"target":34962,"byteStride":8},{"buffer":0,"byteOffset":17172,"byteLength":60,"target":34963},{"buffer":0,"byteOffset":17232,"byteLength":288,"target":34962,"byteStride":12},{"buffer":0,"byteOffset":17520,"byteLength":288,"target":34962,"byteStride":12},{"buffer":0,"byteOffset":17808,"byteLength":192,"target":34962,"byteStride":8},{"buffer":0,"byteOffset":18000,"byteLength":48,"target":34963},{"buffer":0,"byteOffset":18048,"byteLength":288,"target":34962,"byteStride":12},{"buffer":0,"byteOffset":18336,"byteLength":288,"target":34962,"byteStride":12},{"buffer":0,"byteOffset":18624,"byteLength":192,"target":34962,"byteStride":8},{"buffer":0,"byteOffset":18816,"byteLength":72,"target":34963},{"buffer":0,"byteOffset":18888,"byteLength":288,"target":34962,"byteStride":12},{"buffer":0,"byteOffset":19176,"byteLength":288,"target":34962,"byteStride":12},{"buffer":0,"byteOffset":19464,"byteLength":192,"target":34962,"byteStride":8},{"buffer":0,"byteOffset":19656,"byteLength":72,"target":34963},{"buffer":0,"byteOffset":19728,"byteLength":288,"target":34962,"byteStride":12},{"buffer":0,"byteOffset":20016,"byteLength":288,"target":34962,"byteStride":12},{"buffer":0,"byteOffset":20304,"byteLength":192,"target":34962,"byteStride":8},{"buffer":0,"byteOffset":20496,"byteLength":60,"target":34963}],"buffers":[{"byteLength":20556,"uri":"data:application/octet-stream;base64,"}],"accessors":[{"bufferView":0,"componentType":5126,"count":24,"max":[-0.1875,0.1875,0.8125],"min":[-0.25,0,0.1875],"type":"VEC3"},{"bufferView":1,"componentType":5126,"count":24,"max":[1,1,1],"min":[-1,-1,-1],"type":"VEC3"},{"bufferView":2,"componentType":5126,"count":24,"max":[0.46875,0.5312498807907104],"min":[0.24999985098838806,0.10937485098838806],"type":"VEC2"},{"bufferView":3,"componentType":5123,"count":36,"max":[23],"min":[0],"type":"SCALAR"},{"bufferView":4,"componentType":5126,"count":24,"max":[-0.187437504529953,0.1875,0.375],"min":[-0.1875,0,0.203125],"type":"VEC3"},{"bufferView":5,"componentType":5126,"count":24,"max":[1,1,1],"min":[-1,-1,-1],"type":"VEC3"},{"bufferView":6,"componentType":5126,"count":24,"max":[0.75,0.75],"min":[0,0],"type":"VEC2"},{"bufferView":7,"componentType":5123,"count":12,"max":[7],"min":[0],"type":"SCALAR"},{"bufferView":8,"componentType":5126,"count":24,"max":[0.187562495470047,0.1875,0.375],"min":[0.1875,0,0.203125],"type":"VEC3"},{"bufferView":9,"componentType":5126,"count":24,"max":[1,1,1],"min":[-1,-1,-1],"type":"VEC3"},{"bufferView":10,"componentType":5126,"count":24,"max":[0.75,0.75],"min":[0,0],"type":"VEC2"},{"bufferView":11,"componentType":5123,"count":12,"max":[7],"min":[0],"type":"SCALAR"},{"bufferView":12,"componentType":5126,"count":24,"max":[0.5078125,0.09375,0.0000625000029685907],"min":[-0.0859375,-0.125,0],"type":"VEC3"},{"bufferView":13,"componentType":5126,"count":24,"max":[1,1,1],"min":[-1,-1,-1],"type":"VEC3"},{"bufferView":14,"componentType":5126,"count":24,"max":[0.40625014901161194,0.06249985098838806],"min":[0,0],"type":"VEC2"},{"bufferView":15,"componentType":5123,"count":36,"max":[23],"min":[0],"type":"SCALAR"},{"bufferView":16,"componentType":5126,"count":24,"max":[-0.1875,0.5625,0.8125],"min":[-0.25,0.375,0.1875],"type":"VEC3"},{"bufferView":17,"componentType":5126,"count":24,"max":[1,1,1],"min":[-1,-1,-1],"type":"VEC3"},{"bufferView":18,"componentType":5126,"count":24,"max":[0.46875,0.5625],"min":[0.12500016391277313,0.10937485098838806],"type":"VEC2"},{"bufferView":19,"componentType":5123,"count":36,"max":[23],"min":[0],"type":"SCALAR"},{"bufferView":20,"componentType":5126,"count":24,"max":[0.046875,0.03125,0.34375],"min":[-0.046875,-0.03125,-0.34375],"type":"VEC3"},{"bufferView":21,"componentType":5126,"count":24,"max":[1,1,1],"min":[-1,-1,-1],"type":"VEC3"},{"bufferView":22,"componentType":5126,"count":24,"max":[0.5468751192092896,0.48437485098838806],"min":[0.062499843537807465,0.21875014901161194],"type":"VEC2"},{"bufferView":23,"componentType":5123,"count":36,"max":[23],"min":[0],"type":"SCALAR"},{"bufferView":24,"componentType":5126,"count":24,"max":[0.046875,0.03125,0.34375],"min":[-0.046875,-0.03125,-0.34375],"type":"VEC3"},{"bufferView":25,"componentType":5126,"count":24,"max":[1,1,1],"min":[-1,-1,-1],"type":"VEC3"},{"bufferView":26,"componentType":5126,"count":24,"max":[0.5468751192092896,0.48437485098838806],"min":[0.062499843537807465,0.21875014901161194],"type":"VEC2"},{"bufferView":27,"componentType":5123,"count":36,"max":[23],"min":[0],"type":"SCALAR"},{"bufferView":28,"componentType":5126,"count":24,"max":[-0.25,0.5625,0.8125],"min":[-0.75,0.5,0.1875],"type":"VEC3"},{"bufferView":29,"componentType":5126,"count":24,"max":[1,1,1],"min":[-1,-1,-1],"type":"VEC3"},{"bufferView":30,"componentType":5126,"count":24,"max":[0.5625,0.15624985098838806],"min":[0,0],"type":"VEC2"},{"bufferView":31,"componentType":5123,"count":36,"max":[23],"min":[0],"type":"SCALAR"},{"bufferView":32,"componentType":5126,"count":24,"max":[-0.25,0.5,0.25],"min":[-0.75,0.375,0.1875],"type":"VEC3"},{"bufferView":33,"componentType":5126,"count":24,"max":[1,1,1],"min":[-1,-1,-1],"type":"VEC3"},{"bufferView":34,"componentType":5126,"count":24,"max":[0.75,0.75],"min":[0,0],"type":"VEC2"},{"bufferView":35,"componentType":5123,"count":18,"max":[23],"min":[12],"type":"SCALAR"},{"bufferView":36,"componentType":5126,"count":24,"max":[-0.25,0.1875,0.25],"min":[-0.375,0,0.1875],"type":"VEC3"},{"bufferView":37,"componentType":5126,"count":24,"max":[1,1,1],"min":[-1,-1,-1],"type":"VEC3"},{"bufferView":38,"componentType":5126,"count":24,"max":[0.75,0.75],"min":[0,0],"type":"VEC2"},{"bufferView":39,"componentType":5123,"count":30,"max":[23],"min":[4],"type":"SCALAR"},{"bufferView":40,"componentType":5126,"count":24,"max":[-0.25,0.125,0.25],"min":[-0.5,0,0.1875],"type":"VEC3"},{"bufferView":41,"componentType":5126,"count":24,"max":[1,1,1],"min":[-1,-1,-1],"type":"VEC3"},{"bufferView":42,"componentType":5126,"count":24,"max":[0.75,0.75],"min":[0,0],"type":"VEC2"},{"bufferView":43,"componentType":5123,"count":24,"max":[23],"min":[8],"type":"SCALAR"},{"bufferView":44,"componentType":5126,"count":24,"max":[-0.25,0.5,0.8125],"min":[-0.75,0,0.75],"type":"VEC3"},{"bufferView":45,"componentType":5126,"count":24,"max":[1,1,1],"min":[-1,-1,-1],"type":"VEC3"},{"bufferView":46,"componentType":5126,"count":24,"max":[0.5312498807907104,0.5312498807907104],"min":[0,0.15624985098838806],"type":"VEC2"},{"bufferView":47,"componentType":5123,"count":36,"max":[23],"min":[0],"type":"SCALAR"},{"bufferView":48,"componentType":5126,"count":24,"max":[-0.1875,0.375,0.8125],"min":[-0.25,0.1875,0.375],"type":"VEC3"},{"bufferView":49,"componentType":5126,"count":24,"max":[1,1,1],"min":[-1,-1,-1],"type":"VEC3"},{"bufferView":50,"componentType":5126,"count":24,"max":[0.75,0.75],"min":[0,0],"type":"VEC2"},{"bufferView":51,"componentType":5123,"count":24,"max":[23],"min":[0],"type":"SCALAR"},{"bufferView":52,"componentType":5126,"count":24,"max":[0.09375,0.09375,0.203125],"min":[-0.09375,-0.09375,0.078125],"type":"VEC3"},{"bufferView":53,"componentType":5126,"count":24,"max":[1,1,1],"min":[-1,-1,-1],"type":"VEC3"},{"bufferView":54,"componentType":5126,"count":24,"max":[0.48437485098838806,0.46875],"min":[0.140625,0.20312485098838806],"type":"VEC2"},{"bufferView":55,"componentType":5123,"count":36,"max":[23],"min":[0],"type":"SCALAR"},{"bufferView":56,"componentType":5126,"count":24,"max":[0.09375,0.046875,0.796875],"min":[-0.046875,-0.09375,0.078125],"type":"VEC3"},{"bufferView":57,"componentType":5126,"count":24,"max":[1,1,1],"min":[-1,-1,-1],"type":"VEC3"},{"bufferView":58,"componentType":5126,"count":24,"max":[0.48437485098838806,0.5000001192092896],"min":[0,0.06249985098838806],"type":"VEC2"},{"bufferView":59,"componentType":5123,"count":36,"max":[23],"min":[0],"type":"SCALAR"},{"bufferView":60,"componentType":5126,"count":24,"max":[0.0625,0.125,0.125],"min":[0,0,0],"type":"VEC3"},{"bufferView":61,"componentType":5126,"count":24,"max":[1,1,1],"min":[-1,-1,-1],"type":"VEC3"},{"bufferView":62,"componentType":5126,"count":24,"max":[0.75,0.75],"min":[0,0],"type":"VEC2"},{"bufferView":63,"componentType":5123,"count":30,"max":[23],"min":[0],"type":"SCALAR"},{"bufferView":64,"componentType":5126,"count":24,"max":[0.03312499821186066,0.1875,0.359375],"min":[0.03125,0,0],"type":"VEC3"},{"bufferView":65,"componentType":5126,"count":24,"max":[1,1,1],"min":[-1,-1,-1],"type":"VEC3"},{"bufferView":66,"componentType":5126,"count":24,"max":[0.75,0.75],"min":[0,0],"type":"VEC2"},{"bufferView":67,"componentType":5123,"count":12,"max":[7],"min":[0],"type":"SCALAR"},{"bufferView":68,"componentType":5126,"count":24,"max":[0.0018749999580904841,0.15625,0.40625],"min":[0,-0.03125,-0.40625],"type":"VEC3"},{"bufferView":69,"componentType":5126,"count":24,"max":[1,1,1],"min":[-1,-1,-1],"type":"VEC3"},{"bufferView":70,"componentType":5126,"count":24,"max":[0.75,0.75],"min":[0,0],"type":"VEC2"},{"bufferView":71,"componentType":5123,"count":12,"max":[7],"min":[0],"type":"SCALAR"},{"bufferView":72,"componentType":5126,"count":24,"max":[0,0.15625,0.40625],"min":[-0.0018749999580904841,-0.03125,-0.40625],"type":"VEC3"},{"bufferView":73,"componentType":5126,"count":24,"max":[1,1,1],"min":[-1,-1,-1],"type":"VEC3"},{"bufferView":74,"componentType":5126,"count":24,"max":[0.75,0.75],"min":[0,0],"type":"VEC2"},{"bufferView":75,"componentType":5123,"count":12,"max":[7],"min":[0],"type":"SCALAR"},{"bufferView":76,"componentType":5126,"count":24,"max":[-0.03125,0.1875,0.359375],"min":[-0.03312499821186066,0,0],"type":"VEC3"},{"bufferView":77,"componentType":5126,"count":24,"max":[1,1,1],"min":[-1,-1,-1],"type":"VEC3"},{"bufferView":78,"componentType":5126,"count":24,"max":[0.75,0.75],"min":[0,0],"type":"VEC2"},{"bufferView":79,"componentType":5123,"count":12,"max":[7],"min":[0],"type":"SCALAR"},{"bufferView":80,"componentType":5126,"count":24,"max":[0,0.125,0.125],"min":[-0.0625,0,0],"type":"VEC3"},{"bufferView":81,"componentType":5126,"count":24,"max":[1,1,1],"min":[-1,-1,-1],"type":"VEC3"},{"bufferView":82,"componentType":5126,"count":24,"max":[0.75,0.75],"min":[0,0],"type":"VEC2"},{"bufferView":83,"componentType":5123,"count":30,"max":[23],"min":[4],"type":"SCALAR"},{"bufferView":84,"componentType":5126,"count":24,"max":[0.25,0.375,0.8125],"min":[0.1875,0.1875,0.375],"type":"VEC3"},{"bufferView":85,"componentType":5126,"count":24,"max":[1,1,1],"min":[-1,-1,-1],"type":"VEC3"},{"bufferView":86,"componentType":5126,"count":24,"max":[0.75,0.75],"min":[0,0],"type":"VEC2"},{"bufferView":87,"componentType":5123,"count":24,"max":[23],"min":[0],"type":"SCALAR"},{"bufferView":88,"componentType":5126,"count":24,"max":[0.25,0.5625,0.8125],"min":[0.1875,0.375,0.1875],"type":"VEC3"},{"bufferView":89,"componentType":5126,"count":24,"max":[1,1,1],"min":[-1,-1,-1],"type":"VEC3"},{"bufferView":90,"componentType":5126,"count":24,"max":[0.46875,0.5625],"min":[0.12500016391277313,0.10937485098838806],"type":"VEC2"},{"bufferView":91,"componentType":5123,"count":36,"max":[23],"min":[0],"type":"SCALAR"},{"bufferView":92,"componentType":5126,"count":24,"max":[0.25,0.1875,0.8125],"min":[0.1875,0,0.1875],"type":"VEC3"},{"bufferView":93,"componentType":5126,"count":24,"max":[1,1,1],"min":[-1,-1,-1],"type":"VEC3"},{"bufferView":94,"componentType":5126,"count":24,"max":[0.46875,0.5312498807907104],"min":[0.24999985098838806,0.10937485098838806],"type":"VEC2"},{"bufferView":95,"componentType":5123,"count":36,"max":[23],"min":[0],"type":"SCALAR"},{"bufferView":96,"componentType":5126,"count":24,"max":[0.375,0.1875,0.25],"min":[0.25,0,0.1875],"type":"VEC3"},{"bufferView":97,"componentType":5126,"count":24,"max":[1,1,1],"min":[-1,-1,-1],"type":"VEC3"},{"bufferView":98,"componentType":5126,"count":24,"max":[0.75,0.75],"min":[0,0],"type":"VEC2"},{"bufferView":99,"componentType":5123,"count":30,"max":[23],"min":[0],"type":"SCALAR"}],"materials":[{"pbrMetallicRoughness":{"metallicFactor":0,"roughnessFactor":1,"baseColorTexture":{"index":0}},"alphaMode":"MASK","alphaCutoff":0.05}],"textures":[{"sampler":0,"source":0,"name":"helmet.png"}],"samplers":[{"magFilter":9728,"minFilter":9728,"wrapS":33071,"wrapT":33071}],"images":[{"mimeType":"image/png","uri":"data:image/png;base64,"}],"meshes":[{"primitives":[{"mode":4,"attributes":{"POSITION":0,"NORMAL":1,"TEXCOORD_0":2},"indices":3,"material":0}]},{"primitives":[{"mode":4,"attributes":{"POSITION":4,"NORMAL":5,"TEXCOORD_0":6},"indices":7,"material":0}]},{"primitives":[{"mode":4,"attributes":{"POSITION":8,"NORMAL":9,"TEXCOORD_0":10},"indices":11,"material":0}]},{"primitives":[{"mode":4,"attributes":{"POSITION":12,"NORMAL":13,"TEXCOORD_0":14},"indices":15,"material":0}]},{"primitives":[{"mode":4,"attributes":{"POSITION":16,"NORMAL":17,"TEXCOORD_0":18},"indices":19,"material":0}]},{"primitives":[{"mode":4,"attributes":{"POSITION":20,"NORMAL":21,"TEXCOORD_0":22},"indices":23,"material":0}]},{"primitives":[{"mode":4,"attributes":{"POSITION":24,"NORMAL":25,"TEXCOORD_0":26},"indices":27,"material":0}]},{"primitives":[{"mode":4,"attributes":{"POSITION":28,"NORMAL":29,"TEXCOORD_0":30},"indices":31,"material":0}]},{"primitives":[{"mode":4,"attributes":{"POSITION":32,"NORMAL":33,"TEXCOORD_0":34},"indices":35,"material":0}]},{"primitives":[{"mode":4,"attributes":{"POSITION":36,"NORMAL":37,"TEXCOORD_0":38},"indices":39,"material":0}]},{"primitives":[{"mode":4,"attributes":{"POSITION":40,"NORMAL":41,"TEXCOORD_0":42},"indices":43,"material":0}]},{"primitives":[{"mode":4,"attributes":{"POSITION":44,"NORMAL":45,"TEXCOORD_0":46},"indices":47,"material":0}]},{"primitives":[{"mode":4,"attributes":{"POSITION":48,"NORMAL":49,"TEXCOORD_0":50},"indices":51,"material":0}]},{"primitives":[{"mode":4,"attributes":{"POSITION":52,"NORMAL":53,"TEXCOORD_0":54},"indices":55,"material":0}]},{"primitives":[{"mode":4,"attributes":{"POSITION":56,"NORMAL":57,"TEXCOORD_0":58},"indices":59,"material":0}]},{"primitives":[{"mode":4,"attributes":{"POSITION":60,"NORMAL":61,"TEXCOORD_0":62},"indices":63,"material":0}]},{"primitives":[{"mode":4,"attributes":{"POSITION":64,"NORMAL":65,"TEXCOORD_0":66},"indices":67,"material":0}]},{"primitives":[{"mode":4,"attributes":{"POSITION":68,"NORMAL":69,"TEXCOORD_0":70},"indices":71,"material":0}]},{"primitives":[{"mode":4,"attributes":{"POSITION":72,"NORMAL":73,"TEXCOORD_0":74},"indices":75,"material":0}]},{"primitives":[{"mode":4,"attributes":{"POSITION":76,"NORMAL":77,"TEXCOORD_0":78},"indices":79,"material":0}]},{"primitives":[{"mode":4,"attributes":{"POSITION":80,"NORMAL":81,"TEXCOORD_0":82},"indices":83,"material":0}]},{"primitives":[{"mode":4,"attributes":{"POSITION":84,"NORMAL":85,"TEXCOORD_0":86},"indices":87,"material":0}]},{"primitives":[{"mode":4,"attributes":{"POSITION":88,"NORMAL":89,"TEXCOORD_0":90},"indices":91,"material":0}]},{"primitives":[{"mode":4,"attributes":{"POSITION":92,"NORMAL":93,"TEXCOORD_0":94},"indices":95,"material":0}]},{"primitives":[{"mode":4,"attributes":{"POSITION":96,"NORMAL":97,"TEXCOORD_0":98},"indices":99,"material":0}]}]}