{"asset":{"version":"2.0","generator":"Blockbench 4.8.3 glTF exporter"},"scenes":[{"nodes":[12],"name":"blockbench_export"}],"scene":0,"nodes":[{"name":"cube","mesh":0},{"rotation":[0,0,-0.19509032201612825,0.9807852804032304],"translation":[0.40625,0.3875,0.5],"name":"cube","mesh":1},{"translation":[0.15625,0,-0.03125],"name":"cube","mesh":2},{"rotation":[0,0,0.19509032201612825,0.9807852804032304],"translation":[0.59375,0.3875,0.5],"name":"cube","mesh":3},{"rotation":[-0.19509032201612825,0,0,0.9807852804032304],"translation":[0.5,-0.059851875,0.1056675],"name":"cube","mesh":4},{"rotation":[0.19509032201612825,0,0,0.9807852804032304],"translation":[0.5,-0.059851875,0.8943325],"name":"cube","mesh":5},{"rotation":[0,0,0.19509032201612825,0.9807852804032304],"translation":[0.59375,0.3875,0.5],"name":"cube inverted","mesh":6},{"translation":[0.15625,0,-0.03125],"name":"cube inverted","mesh":7},{"rotation":[0,0,-0.19509032201612825,0.9807852804032304],"translation":[0.40625,0.3875,0.5],"name":"cube inverted","mesh":8},{"rotation":[0.19509032201612825,0,0,0.9807852804032304],"translation":[0.5,-0.059851875,0.8943325],"name":"cube inverted","mesh":9},{"rotation":[-0.19509032201612825,0,0,0.9807852804032304],"translation":[0.5,-0.059851875,0.1056675],"name":"cube inverted","mesh":10},{"name":"cube inverted","mesh":11},{"children":[0,1,2,3,4,5,6,7,8,9,10,11]}],"bufferViews":[{"buffer":0,"byteOffset":0,"byteLength":288,"target":34962,"byteStride":12},{"buffer":0,"byteOffset":288,"byteLength":288,"target":34962,"byteStride":12},{"buffer":0,"byteOffset":576,"byteLength":192,"target":34962,"byteStride":8},{"buffer":0,"byteOffset":768,"byteLength":60,"target":34963},{"buffer":0,"byteOffset":828,"byteLength":288,"target":34962,"byteStride":12},{"buffer":0,"byteOffset":1116,"byteLength":288,"target":34962,"byteStride":12},{"buffer":0,"byteOffset":1404,"byteLength":192,"target":34962,"byteStride":8},{"buffer":0,"byteOffset":1596,"byteLength":72,"target":34963},{"buffer":0,"byteOffset":1668,"byteLength":288,"target":34962,"byteStride":12},{"buffer":0,"byteOffset":1956,"byteLength":288,"target":34962,"byteStride":12},{"buffer":0,"byteOffset":2244,"byteLength":192,"target":34962,"byteStride":8},{"buffer":0,"byteOffset":2436,"byteLength":72,"target":34963},{"buffer":0,"byteOffset":2508,"byteLength":288,"target":34962,"byteStride":12},{"buffer":0,"byteOffset":2796,"byteLength":288,"target":34962,"byteStride":12},{"buffer":0,"byteOffset":3084,"byteLength":192,"target":34962,"byteStride":8},{"buffer":0,"byteOffset":3276,"byteLength":72,"target":34963},{"buffer":0,"byteOffset":3348,"byteLength":288,"target":34962,"byteStride":12},{"buffer":0,"byteOffset":3636,"byteLength":288,"target":34962,"byteStride":12},{"buffer":0,"byteOffset":3924,"byteLength":192,"target":34962,"byteStride":8},{"buffer":0,"byteOffset":4116,"byteLength":36,"target":34963},{"buffer":0,"byteOffset":4152,"byteLength":288,"target":34962,"byteStride":12},{"buffer":0,"byteOffset":4440,"byteLength":288,"target":34962,"byteStride":12},{"buffer":0,"byteOffset":4728,"byteLength":192,"target":34962,"byteStride":8},{"buffer":0,"byteOffset":4920,"byteLength":36,"target":34963},{"buffer":0,"byteOffset":4956,"byteLength":288,"target":34962,"byteStride":12},{"buffer":0,"byteOffset":5244,"byteLength":288,"target":34962,"byteStride":12},{"buffer":0,"byteOffset":5532,"byteLength":192,"target":34962,"byteStride":8},{"buffer":0,"byteOffset":5724,"byteLength":72,"target":34963},{"buffer":0,"byteOffset":5796,"byteLength":288,"target":34962,"byteStride":12},{"buffer":0,"byteOffset":6084,"byteLength":288,"target":34962,"byteStride":12},{"buffer":0,"byteOffset":6372,"byteLength":192,"target":34962,"byteStride":8},{"buffer":0,"byteOffset":6564,"byteLength":72,"target":34963},{"buffer":0,"byteOffset":6636,"byteLength":288,"target":34962,"byteStride":12},{"buffer":0,"byteOffset":6924,"byteLength":288,"target":34962,"byteStride":12},{"buffer":0,"byteOffset":7212,"byteLength":192,"target":34962,"byteStride":8},{"buffer":0,"byteOffset":7404,"byteLength":72,"target":34963},{"buffer":0,"byteOffset":7476,"byteLength":288,"target":34962,"byteStride":12},{"buffer":0,"byteOffset":7764,"byteLength":288,"target":34962,"byteStride":12},{"buffer":0,"byteOffset":8052,"byteLength":192,"target":34962,"byteStride":8},{"buffer":0,"byteOffset":8244,"byteLength":36,"target":34963},{"buffer":0,"byteOffset":8280,"byteLength":288,"target":34962,"byteStride":12},{"buffer":0,"byteOffset":8568,"byteLength":288,"target":34962,"byteStride":12},{"buffer":0,"byteOffset":8856,"byteLength":192,"target":34962,"byteStride":8},{"buffer":0,"byteOffset":9048,"byteLength":36,"target":34963},{"buffer":0,"byteOffset":9084,"byteLength":288,"target":34962,"byteStride":12},{"buffer":0,"byteOffset":9372,"byteLength":288,"target":34962,"byteStride":12},{"buffer":0,"byteOffset":9660,"byteLength":192,"target":34962,"byteStride":8},{"buffer":0,"byteOffset":9852,"byteLength":60,"target":34963}],"buffers":[{"byteLength":9912,"uri":"data:application/octet-stream;base64,"}],"accessors":[{"bufferView":0,"componentType":5126,"count":24,"max":[0.75,0.3125,0.75],"min":[0.25,0,0.25],"type":"VEC3"},{"bufferView":1,"componentType":5126,"count":24,"max":[1,1,1],"min":[-1,-1,-1],"type":"VEC3"},{"bufferView":2,"componentType":5126,"count":24,"max":[1,1],"min":[0,0],"type":"VEC2"},{"bufferView":3,"componentType":5123,"count":30,"max":[23],"min":[0],"type":"SCALAR"},{"bufferView":4,"componentType":5126,"count":24,"max":[0.09375,0,0.03125],"min":[-0.03125,-0.0625,-0.03125],"type":"VEC3"},{"bufferView":5,"componentType":5126,"count":24,"max":[1,1,1],"min":[-1,-1,-1],"type":"VEC3"},{"bufferView":6,"componentType":5126,"count":24,"max":[1,0.0625],"min":[0,0],"type":"VEC2"},{"bufferView":7,"componentType":5123,"count":36,"max":[23],"min":[0],"type":"SCALAR"},{"bufferView":8,"componentType":5126,"count":24,"max":[0.375,0.375,0.5625],"min":[0.3125,0.3125,0.5],"type":"VEC3"},{"bufferView":9,"componentType":5126,"count":24,"max":[1,1,1],"min":[-1,-1,-1],"type":"VEC3"},{"bufferView":10,"componentType":5126,"count":24,"max":[1,0.0625],"min":[0,0],"type":"VEC2"},{"bufferView":11,"componentType":5123,"count":36,"max":[23],"min":[0],"type":"SCALAR"},{"bufferView":12,"componentType":5126,"count":24,"max":[0.03125,0,0.03125],"min":[-0.09375,-0.0625,-0.03125],"type":"VEC3"},{"bufferView":13,"componentType":5126,"count":24,"max":[1,1,1],"min":[-1,-1,-1],"type":"VEC3"},{"bufferView":14,"componentType":5126,"count":24,"max":[1,0.0625],"min":[0,0],"type":"VEC2"},{"bufferView":15,"componentType":5123,"count":36,"max":[23],"min":[0],"type":"SCALAR"},{"bufferView":16,"componentType":5126,"count":24,"max":[0.25,0,0.15625],"min":[-0.25,-0.0625,-0.09375],"type":"VEC3"},{"bufferView":17,"componentType":5126,"count":24,"max":[1,1,1],"min":[-1,-1,-1],"type":"VEC3"},{"bufferView":18,"componentType":5126,"count":24,"max":[1,1],"min":[0,0],"type":"VEC2"},{"bufferView":19,"componentType":5123,"count":18,"max":[11],"min":[0],"type":"SCALAR"},{"bufferView":20,"componentType":5126,"count":24,"max":[0.25,0,0.09375],"min":[-0.25,-0.0625,-0.15625],"type":"VEC3"},{"bufferView":21,"componentType":5126,"count":24,"max":[1,1,1],"min":[-1,-1,-1],"type":"VEC3"},{"bufferView":22,"componentType":5126,"count":24,"max":[1,1],"min":[0,0],"type":"VEC2"},{"bufferView":23,"componentType":5123,"count":18,"max":[11],"min":[0],"type":"SCALAR"},{"bufferView":24,"componentType":5126,"count":24,"max":[0.03125,0,0.03125],"min":[-0.09375,-0.0625,-0.03125],"type":"VEC3"},{"bufferView":25,"componentType":5126,"count":24,"max":[1,1,1],"min":[-1,-1,-1],"type":"VEC3"},{"bufferView":26,"componentType":5126,"count":24,"max":[1,0.0625],"min":[0,0],"type":"VEC2"},{"bufferView":27,"componentType":5123,"count":36,"max":[23],"min":[0],"type":"SCALAR"},{"bufferView":28,"componentType":5126,"count":24,"max":[0.375,0.375,0.5625],"min":[0.3125,0.3125,0.5],"type":"VEC3"},{"bufferView":29,"componentType":5126,"count":24,"max":[1,1,1],"min":[-1,-1,-1],"type":"VEC3"},{"bufferView":30,"componentType":5126,"count":24,"max":[0.9375,0.0625],"min":[0,0],"type":"VEC2"},{"bufferView":31,"componentType":5123,"count":36,"max":[23],"min":[0],"type":"SCALAR"},{"bufferView":32,"componentType":5126,"count":24,"max":[0.09375,0,0.03125],"min":[-0.03125,-0.0625,-0.03125],"type":"VEC3"},{"bufferView":33,"componentType":5126,"count":24,"max":[1,1,1],"min":[-1,-1,-1],"type":"VEC3"},{"bufferView":34,"componentType":5126,"count":24,"max":[1,0.0625],"min":[0,0],"type":"VEC2"},{"bufferView":35,"componentType":5123,"count":36,"max":[23],"min":[0],"type":"SCALAR"},{"bufferView":36,"componentType":5126,"count":24,"max":[0.25,0,0.09375],"min":[-0.25,-0.0625,-0.15625],"type":"VEC3"},{"bufferView":37,"componentType":5126,"count":24,"max":[1,1,1],"min":[-1,-1,-1],"type":"VEC3"},{"bufferView":38,"componentType":5126,"count":24,"max":[1,1],"min":[0,0],"type":"VEC2"},{"bufferView":39,"componentType":5123,"count":18,"max":[15],"min":[0],"type":"SCALAR"},{"bufferView":40,"componentType":5126,"count":24,"max":[0.25,0,0.15625],"min":[-0.25,-0.0625,-0.09375],"type":"VEC3"},{"bufferView":41,"componentType":5126,"count":24,"max":[1,1,1],"min":[-1,-1,-1],"type":"VEC3"},{"bufferView":42,"componentType":5126,"count":24,"max":[1,1],"min":[0,0],"type":"VEC2"},{"bufferView":43,"componentType":5123,"count":18,"max":[15],"min":[0],"type":"SCALAR"},{"bufferView":44,"componentType":5126,"count":24,"max":[0.75,0.3125,0.75],"min":[0.25,0,0.25],"type":"VEC3"},{"bufferView":45,"componentType":5126,"count":24,"max":[1,1,1],"min":[-1,-1,-1],"type":"VEC3"},{"bufferView":46,"componentType":5126,"count":24,"max":[1,1],"min":[0,0],"type":"VEC2"},{"bufferView":47,"componentType":5123,"count":30,"max":[23],"min":[0],"type":"SCALAR"}],"materials":[{"pbrMetallicRoughness":{"metallicFactor":0,"roughnessFactor":1,"baseColorTexture":{"index":0}},"alphaMode":"MASK","alphaCutoff":0.05}],"textures":[{"sampler":0,"source":0}],"samplers":[{"magFilter":9728,"minFilter":9728,"wrapS":33071,"wrapT":33071}],"images":[{"mimeType":"image/png","uri":"data:image/png;base64,"}],"meshes":[{"primitives":[{"mode":4,"attributes":{"POSITION":0,"NORMAL":1,"TEXCOORD_0":2},"indices":3,"material":0}]},{"primitives":[{"mode":4,"attributes":{"POSITION":4,"NORMAL":5,"TEXCOORD_0":6},"indices":7,"material":0}]},{"primitives":[{"mode":4,"attributes":{"POSITION":8,"NORMAL":9,"TEXCOORD_0":10},"indices":11,"material":0}]},{"primitives":[{"mode":4,"attributes":{"POSITION":12,"NORMAL":13,"TEXCOORD_0":14},"indices":15,"material":0}]},{"primitives":[{"mode":4,"attributes":{"POSITION":16,"NORMAL":17,"TEXCOORD_0":18},"indices":19,"material":0}]},{"primitives":[{"mode":4,"attributes":{"POSITION":20,"NORMAL":21,"TEXCOORD_0":22},"indices":23,"material":0}]},{"primitives":[{"mode":4,"attributes":{"POSITION":24,"NORMAL":25,"TEXCOORD_0":26},"indices":27,"material":0}]},{"primitives":[{"mode":4,"attributes":{"POSITION":28,"NORMAL":29,"TEXCOORD_0":30},"indices":31,"material":0}]},{"primitives":[{"mode":4,"attributes":{"POSITION":32,"NORMAL":33,"TEXCOORD_0":34},"indices":35,"material":0}]},{"primitives":[{"mode":4,"attributes":{"POSITION":36,"NORMAL":37,"TEXCOORD_0":38},"indices":39,"material":0}]},{"primitives":[{"mode":4,"attributes":{"POSITION":40,"NORMAL":41,"TEXCOORD_0":42},"indices":43,"material":0}]},{"primitives":[{"mode":4,"attributes":{"POSITION":44,"NORMAL":45,"TEXCOORD_0":46},"indices":47,"material":0}]}]}